<?xml version="1.0" standalone="no"?><!DOCTYPE svg PUBLIC "-//W3C//DTD SVG 1.1//EN" "http://www.w3.org/Graphics/SVG/1.1/DTD/svg11.dtd"><svg t="1529058897853" class="icon" style="" viewBox="0 0 1024 1024" version="1.1" xmlns="http://www.w3.org/2000/svg" p-id="16838" xmlns:xlink="http://www.w3.org/1999/xlink" width="200" height="200"><defs><style type="text/css"></style></defs><path d="M523.982671 766.312961h40.210767v-70.133126h-40.210767v70.133126z m0-181.755845h40.210767v-71.036252h-40.210767v71.036252z m0 91.772017h40.210767v-71.91409h-40.210767v71.91409z m-62.955083-108.960305a258.192789 258.192789 0 0 1-39.188429 29.546659c5.823354-8.514669 11.216821-18.149213 16.173174-28.900021a583.61064 583.61064 0 0 0 14.421111-34.185113h-37.728978v73.676992a538.118394 538.118394 0 0 0 17.993876-4.855204 3163.092867 3163.092867 0 0 0 19.735102-5.736654c-3.778678 4.407253-8.955394 9.555069-15.584337 15.428999a724.19118 724.19118 0 0 1-22.144641 18.972864v73.680604c0 27.939095-3.280152 50.141537-9.840457 66.628999-6.556692 16.465787-16.97515 29.387709-31.258985 38.805503-5.530742 3.229577-10.707458 5.010541-15.515699 5.306766-4.808241 0.270938-9.251619-2.507077-13.32291-8.381006l-33.657687-47.222634c7.579031 0 13.911748-0.863388 19.012601-2.644352a25.623481 25.623481 0 0 0 12.452297-9.045707c3.211515-4.269978 5.541579-9.927157 7.00103-16.97515 1.459451-7.066055 2.181952-15.739674 2.181952-26.038919v-31.757511a195.913243 195.913243 0 0 1-10.935046 5.519904 137.05835 137.05835 0 0 1-10.053595 4.190504c-2.908065 0.585225-5.599379 0.44795-8.088393-0.451563-2.478177-0.881451-4.002653-3.663078-4.591491-8.377394l-10.924208-53.822677c12.824384 0.877838 27.68622 0.44795 44.592733-1.311338V533.819516h-34.098413l-10.49432-19.850702h44.592733v-92.183843l80.580484 9.262457-17.632626 14.995499v67.940337h4.367516l17.990263-16.332125 17.993876 30.019897a601.842941 601.842941 0 0 0 16.682537-53.609539 668.345502 668.345502 0 0 0 11.375771-52.280138l55.589191 14.999111c4.363903 1.466676 7.210555 3.388527 8.521893 5.736654 1.304113 2.348127 1.087363 6.029267-0.657475 11.021746-4.952741 13.528822-11.805659 26.92037-20.547915 40.156579h61.058519c-4.956354-14.720948-10.136682-27.057645-15.663811-37.064277-5.545192-10.006632-12.466747-19.695364-20.923615-29.113159 17.49535 0.588838 32.501686 2.781627 45.033458 6.618105 12.524547 3.818415 22.292754 8.164256 29.290171 13.01946 6.990193 4.837141 11.357708 9.77182 13.109772 14.760685 1.748451 5.010541 0.733338 9.125182-3.067015 12.354759l-27.978833 19.402752h50.856813l17.918013-16.310449 21.859253 36.161151h-70.375164v71.036252h26.22677l17.484512-16.762012 22.292754 36.616327h-66.004036v71.91409h26.22677l17.484512-16.762012 22.292754 36.612714h-66.004036v70.133126h30.60151l17.918013-16.7584 21.859254 36.612715h-173.541015v29.116771H461.027588v-247.915219z m226.648416-378.590277c36.930615 22.596204 66.639836 171.456601-24.875694 177.077654a174.917378 174.917378 0 0 1-11.809271 0.390151C463.195089 366.246356 541.152896 71.888803 541.152896 71.888803c-266.223382 80.197559-202.885374 297.121118-202.885373 297.121117S268.481197 340.341099 287.865886 226.294391c-112.814845 73.052029-86.169026 262.679517-86.169026 262.679517s-69.555126-30.467847-53.530064-126.582093c-31.316785 57.641092-45.141833 115.596472-45.210471 185.968024v0.585226C103.024963 772.678191 282.512157 954.061949 503.933282 954.061949c221.475312 0 400.998631-181.441558 400.998631-405.236097 0-156.851252-88.264277-292.695802-217.255909-360.047301z m0 0" fill="" p-id="16839"></path></svg>