<?xml version="1.0" standalone="no"?><!DOCTYPE svg PUBLIC "-//W3C//DTD SVG 1.1//EN" "http://www.w3.org/Graphics/SVG/1.1/DTD/svg11.dtd"><svg t="1529054789764" class="icon" style="" viewBox="0 0 1024 1024" version="1.1" xmlns="http://www.w3.org/2000/svg" p-id="1897" xmlns:xlink="http://www.w3.org/1999/xlink" width="200" height="200"><defs><style type="text/css"></style></defs><path d="M512 973.47489l-7.959218-2.896774c-152.172297-55.387882-275.543755-165.759182-347.38765-310.784259-71.535684-144.400463-85.033485-308.712794-38.007236-462.669848l5.021485-16.43963 17.19019-0.033791c130.214563-0.253941 253.541991-43.009266 356.648317-123.645879l14.356901-11.227688 14.341542 11.249192c102.785827 80.621254 226.212579 123.36941 356.939121 123.624376l17.19019 0.033791 5.020461 16.43963c47.027273 153.957054 33.528448 318.269385-38.006212 462.669848C795.502973 804.818934 672.131514 915.190234 519.960242 970.578116L512 973.47489zM158.461441 226.918085C79.306493 515.250039 231.908852 817.361383 512 923.879533c280.092172-106.519174 432.693507-408.62847 353.538559-696.9594-65.102162-1.911728-128.931545-13.780413-189.993172-35.348019-58.607202-20.701339-113.600861-49.931215-163.722532-86.997434-50.193348 37.029357-105.139904 66.235682-163.580202 86.923709C287.200482 213.106954 223.43868 224.99919 158.461441 226.918085z" p-id="1898"></path><path d="M469.433084 680.719442c-5.956358 0-11.910668-2.272161-16.456013-6.816482L321.346375 542.272265c-9.087618-9.087618-9.087618-23.823383 0-32.911002 9.088642-9.087618 23.823383-9.087618 32.912026 0L469.434108 624.536969l246.851456-246.828929c9.088642-9.088642 23.823383-9.087618 32.912026 0.001024 9.087618 9.088642 9.087618 23.823383-0.001024 32.911002L485.888073 673.903984C481.343752 678.447281 475.387394 680.719442 469.433084 680.719442z" p-id="1899"></path></svg>