<?xml version="1.0" standalone="no"?><!DOCTYPE svg PUBLIC "-//W3C//DTD SVG 1.1//EN" "http://www.w3.org/Graphics/SVG/1.1/DTD/svg11.dtd"><svg t="1529059288753" class="icon" style="" viewBox="0 0 1024 1024" version="1.1" xmlns="http://www.w3.org/2000/svg" p-id="3325" xmlns:xlink="http://www.w3.org/1999/xlink" width="200" height="200"><defs><style type="text/css"></style></defs><path d="M512 0c-282.624 0-512 229.376-512 512s229.376 512 512 512S1024 794.624 1024 512s-229.376-512-512-512z m237.056 310.784c32.256 0 58.88 26.112 58.88 58.88 0 32.256-26.112 58.88-58.88 58.88-32.256 0-58.88-26.624-58.88-58.88 0-32.768 26.624-58.88 58.88-58.88zM512 204.8c58.88 0 105.984 47.616 105.984 105.984 0 58.368-47.104 105.984-105.984 105.984-58.368 0-105.984-47.104-105.984-105.984 0-58.368 47.104-105.984 105.984-105.984zM274.944 300.544c32.256 0 58.368 26.112 58.368 58.88 0 32.256-26.112 58.88-58.368 58.88-32.256 0-58.88-26.112-58.88-58.88 0-32.256 26.624-58.88 58.88-58.88z m0 355.84c-68.096 0-123.392-7.168-123.392-15.872l6.144-5.632 28.672-24.576-20.992-23.552c0-76.288 49.152-137.728 110.08-137.728 28.672 0 54.784 14.336 74.752 37.376-40.96 40.448-68.096 101.376-73.728 169.472-0.512 0.512-1.024 0.512-1.536 0.512z m458.752 134.144c0 15.872-99.328 28.672-222.208 28.672s-222.208-13.312-222.208-28.672l10.752-8.704 51.712-45.056-38.4-42.496c0-8.192 0.512-16.384 1.024-24.064 5.12-68.608 32.768-129.024 73.216-169.984 34.304-34.304 77.312-54.784 124.416-54.784 47.104 0 90.112 19.968 124.416 54.272 40.96 40.96 68.608 101.376 73.728 169.984 0.512 7.68 1.024 15.872 1.024 24.064h-1.024l-38.4 42.496 53.248 46.08 8.704 7.168v1.024z m138.24-155.648c0 8.704-54.784 16.384-123.392 16.384-5.632-69.12-33.28-129.536-73.728-169.984 19.456-23.04 45.568-37.376 74.752-37.376 60.928 0 110.08 61.952 110.08 138.24h-0.512l-21.504 23.552 29.696 25.6 4.608 3.584z" fill="" p-id="3326"></path></svg>