<?xml version="1.0" standalone="no"?><!DOCTYPE svg PUBLIC "-//W3C//DTD SVG 1.1//EN" "http://www.w3.org/Graphics/SVG/1.1/DTD/svg11.dtd"><svg t="1529483810506" class="icon" style="" viewBox="0 0 1024 1024" version="1.1" xmlns="http://www.w3.org/2000/svg" p-id="1961" xmlns:xlink="http://www.w3.org/1999/xlink" width="200" height="200"><defs><style type="text/css"></style></defs><path d="M507.5 173.75c-196.25 2.5-353.75 163.75-350 360 2.5 196.25 163.75 352.5 360 350C712.5 882.5 870 721.25 867.5 525 865 328.75 703.75 171.25 507.5 173.75L507.5 173.75zM512.5 782.5l-2.5 0c-28.75-1.25-50-22.5-48.75-52.5 1.25-28.75 22.5-50 50-50l1.25 0c30 1.25 50 22.5 50 52.5C562.5 762.5 541.25 782.5 512.5 782.5L512.5 782.5zM642.5 518.75c-7.5 11.25-25 23.75-46.25 40L572.5 575c-12.5 10-21.25 18.75-23.75 28.75-2.5 7.5-3.75 8.75-3.75 23.75l0 3.75-90 0 0-7.5c1.25-31.25 2.5-48.75 15-63.75 20-23.75 65-51.25 66.25-52.5 6.25-5 11.25-10 16.25-16.25 10-12.5 13.75-22.5 13.75-32.5 0-13.75-3.75-26.25-12.5-37.5-7.5-11.25-22.5-16.25-43.75-16.25-21.25 0-36.25 6.25-45 20-8.75 13.75-13.75 28.75-13.75 43.75l0 3.75-92.5 0 0-3.75c2.5-56.25 22.5-96.25 60-118.75 23.75-15 52.5-22.5 86.25-22.5 45 0 82.5 11.25 112.5 31.25 30 21.25 45 53.75 45 95C663.75 476.25 656.25 498.75 642.5 518.75L642.5 518.75z" p-id="1962"></path></svg>