<?xml version="1.0" standalone="no"?><!DOCTYPE svg PUBLIC "-//W3C//DTD SVG 1.1//EN" "http://www.w3.org/Graphics/SVG/1.1/DTD/svg11.dtd"><svg t="1529056829993" class="icon" style="" viewBox="0 0 1024 1024" version="1.1" xmlns="http://www.w3.org/2000/svg" p-id="10897" xmlns:xlink="http://www.w3.org/1999/xlink" width="200" height="200"><defs><style type="text/css"></style></defs><path d="M496.128 745.472V732.16c0-3.584 0.512-7.68 1.024-12.8H283.136c-14.848 0-27.648-5.12-38.4-15.872-10.752-10.752-15.872-24.064-15.872-39.424s5.12-28.672 15.872-39.936 23.552-16.384 38.4-16.384h252.416c22.016-35.328 51.2-63.488 87.04-84.48 36.352-20.992 75.776-31.232 119.296-31.232 4.608 0 9.728 0 14.848 0.512 5.12 0 10.24 0.512 15.872 1.536V270.848H645.12c-16.384 0-30.208-3.584-41.472-11.264-11.776-7.68-20.992-16.896-28.16-27.648-7.168-10.752-12.8-23.04-15.872-36.352-3.584-13.312-5.12-25.6-5.12-36.864V46.592H152.576c-8.192 0-16.896 3.072-23.04 9.728-6.144 6.656-9.728 15.36-9.728 24.064V855.04c0 8.704 3.072 17.408 9.728 24.064 6.144 6.656 14.848 9.728 23.04 9.728h387.072c-13.824-20.48-24.576-42.496-32.256-66.56-7.68-24.576-11.264-50.176-11.264-76.8zM244.224 399.36c10.752-10.752 23.552-15.872 38.4-15.872h325.12c14.848 0 27.648 5.12 38.4 15.872 10.752 10.752 15.872 24.064 15.872 39.424s-5.12 28.672-15.872 39.936-23.552 16.384-38.4 16.384H283.136c-14.848 0-27.648-5.632-38.4-16.384-10.752-11.264-15.872-24.576-15.872-39.936-0.512-15.872 4.608-28.672 15.36-39.424z" fill="" p-id="10898"></path><path d="M673.792 213.504h98.304v-133.12c0-8.704-3.072-17.408-9.728-24.064-6.144-6.656-14.848-9.728-23.04-9.728H609.28v99.328c0 17.408 6.144 34.304 18.944 47.616 12.288 13.312 29.184 19.968 45.568 19.968zM920.576 670.208c-10.24-24.064-24.064-44.544-40.96-62.464-17.408-17.92-37.376-32.256-60.928-42.496-23.04-10.24-48.128-15.872-74.752-15.872-26.112 0-50.688 5.12-73.728 15.872-23.04 10.24-43.52 24.576-60.928 42.496-17.408 17.92-31.232 38.912-40.96 62.464-10.24 24.064-15.36 49.152-15.36 76.288 0 27.648 5.12 53.248 15.36 77.312 10.24 24.064 24.064 44.544 40.96 62.464 17.408 17.92 37.376 32.256 60.928 42.496 23.04 10.24 47.616 15.872 73.728 15.872 26.624 0 51.712-5.12 74.752-15.872 23.04-10.24 43.52-24.576 60.928-42.496 17.408-17.92 31.232-38.912 40.96-62.464 10.24-24.064 15.36-49.664 15.36-77.312 0-27.136-5.12-52.736-15.36-76.288z m-64.512 115.2l-49.152 48.64c-10.752 10.752-19.456 7.168-19.456-8.192v-48.64c-34.816 0-70.144 0.512-104.96 0-6.144 0-11.776-1.536-17.408-3.584-13.824-5.632-25.088-17.408-29.696-31.232-1.536-5.12-2.56-10.752-2.56-16.384v-51.712h34.304v51.2c0 2.048 0 3.584 1.024 5.632 1.536 5.12 5.632 8.704 10.24 10.752 2.048 0.512 4.096 1.024 6.144 1.024h103.424v-36.864c0-15.36 8.704-18.944 19.456-8.192l49.152 48.64c5.12 5.12 8.192 12.288 8.192 19.456s-3.584 14.336-8.704 19.456z" fill="" p-id="10899"></path></svg>