<?xml version="1.0" standalone="no"?><!DOCTYPE svg PUBLIC "-//W3C//DTD SVG 1.1//EN" "http://www.w3.org/Graphics/SVG/1.1/DTD/svg11.dtd"><svg t="1529657582900" class="icon" style="" viewBox="0 0 1024 1024" version="1.1" xmlns="http://www.w3.org/2000/svg" p-id="7871" xmlns:xlink="http://www.w3.org/1999/xlink" width="200" height="200"><defs><style type="text/css"></style></defs><path d="M0 512C0 229.230194 229.168014 0 512 0 794.769806 0 1024 229.168014 1024 512 1024 794.769806 794.831986 1024 512 1024 229.230194 1024 0 794.831986 0 512ZM512 425.486108C512 425.486108 587.778389 503.936683 615.445732 531.987968 617.334329 533.902564 617.334329 533.902564 619.223495 535.816704 745.636978 663.884971 750.341518 668.472036 768 668.472036 783.709412 668.472036 796.444444 655.73706 796.444444 640.027591 796.444444 624.31818 776.67584 611.272704 781.366841 615.005412 779.703751 613.682062 777.100288 611.426076 773.731442 608.370802 766.858411 602.137543 757.186788 592.937643 745.026503 581.080917 723.310194 559.906645 694.260679 530.854798 659.710748 495.852601 657.829433 493.946425 657.829433 493.946425 655.948516 492.039623 628.376405 464.084878 599.051264 434.123435 569.87557 404.160512 559.663047 393.672476 550.199239 383.933952 541.721429 375.195136 533.009692 366.209593 533.009692 366.209593 531.087132 364.22235 520.048469 352.812089 501.80608 352.646713 490.562332 363.854962L235.918564 617.694834C224.792747 628.785493 224.764302 646.795492 235.854962 657.921308 246.945621 669.047125 264.95562 669.07557 276.081436 657.98491L512 425.486108Z" p-id="7872"></path></svg>