<?xml version="1.0" standalone="no"?><!DOCTYPE svg PUBLIC "-//W3C//DTD SVG 1.1//EN" "http://www.w3.org/Graphics/SVG/1.1/DTD/svg11.dtd"><svg t="1529057995285" class="icon" style="" viewBox="0 0 1024 1024" version="1.1" xmlns="http://www.w3.org/2000/svg" p-id="14784" xmlns:xlink="http://www.w3.org/1999/xlink" width="200" height="200"><defs><style type="text/css"></style></defs><path d="M497.469371 643.338463c23.22854-44.717498 57.815529-94.858399 136.403718-132.003597 5.832717-1.534926-19.954032-18.21445-29.572899-22.307585-20.465674-8.697911-35.303288-12.484061-50.754872-14.018987 74.495053-30.800839 126.887179-104.067952 126.887179-189.61447 0-113.277506-91.890876-205.168382-205.168382-205.168382s-205.168382 91.890876-205.168382 205.168382c0 91.583891 60.066753 169.148796 142.952733 195.549516-172.934946 32.02878-303.915259 183.679424-303.915259 365.926251 0 16.270211 1.023284 32.233437 3.069851 47.889678H188.335365l286.92875-2.865195c2.967523 0 5.321075-2.353553 5.321075-5.321075 0.102328-35.303288 3.069851-116.961327 1.330269-158.608974-1.432597-36.735885 8.083941-67.946038 15.553912-84.625562z" p-id="14785"></path><path d="M914.764465 765.723194v-61.294694l-53.824723-10.949136c-3.683821-13.712002-9.004897-26.605376-15.963226-38.577795l30.391526-45.740782-0.102328-0.102328-43.182572-43.182572-0.102329-0.102328-45.740781 30.391525c-11.972419-6.958329-24.865794-12.279404-38.475467-15.963225L736.815429 526.274808h-61.294694l-10.949135 53.824722c-13.609673 3.683821-26.503048 9.004897-38.475467 15.963226l-45.740782-30.391526-0.102328 0.102329-43.182572 43.182572-0.102329 0.102328 30.391526 45.740782c-6.958329 11.972419-12.279404 24.865794-15.963225 38.577795l-53.824723 10.949136v61.294693l53.824723 10.949136c3.683821 13.609673 9.004897 26.605376 15.963225 38.577796l-30.391526 45.740781 0.102329 0.102328L580.253023 904.275807l0.102328 0.102328 45.740782-30.391526c11.972419 6.958329 24.865794 12.279404 38.475467 15.963226l10.949135 53.824723h61.294694l10.949136-53.824723c13.609673-3.683821 26.503048-9.004897 38.475467-15.963226l45.740781 30.391526 0.102329-0.102328 43.182572-43.182572 0.102328-0.102329-30.391526-45.740781c6.958329-11.972419 12.279404-24.865794 15.963226-38.577796l53.824723-10.949135z m-208.545218 41.749975c-40.010393 0-72.448486-32.540422-72.448487-72.550815 0-40.010393 32.438093-72.550814 72.448487-72.550814s72.448486 32.540422 72.448486 72.550814c0 40.215049-32.335765 72.550814-72.448486 72.550815z" p-id="14786"></path></svg>