<?xml version="1.0" standalone="no"?><!DOCTYPE svg PUBLIC "-//W3C//DTD SVG 1.1//EN" "http://www.w3.org/Graphics/SVG/1.1/DTD/svg11.dtd"><svg t="1529396033761" class="icon" style="" viewBox="0 0 1024 1024" version="1.1" xmlns="http://www.w3.org/2000/svg" p-id="2504" xmlns:xlink="http://www.w3.org/1999/xlink" width="200" height="200"><defs><style type="text/css"></style></defs><path d="M178.915556 730.339556A481.991111 481.991111 0 0 1 512 597.333333c125.866667 0 244.081778 48.355556 333.084444 133.006223A396.373333 396.373333 0 0 0 910.222222 512c0-219.932444-178.289778-398.222222-398.222222-398.222222S113.777778 292.067556 113.777778 512c0 80.611556 23.950222 155.648 65.137778 218.339556zM512 967.111111C260.636444 967.111111 56.888889 763.363556 56.888889 512S260.636444 56.888889 512 56.888889s455.111111 203.747556 455.111111 455.111111-203.747556 455.111111-455.111111 455.111111z m0-426.666667a170.666667 170.666667 0 1 1 0-341.333333 170.666667 170.666667 0 0 1 0 341.333333z" p-id="2505"></path></svg>