<?xml version="1.0" standalone="no"?><!DOCTYPE svg PUBLIC "-//W3C//DTD SVG 1.1//EN" "http://www.w3.org/Graphics/SVG/1.1/DTD/svg11.dtd"><svg t="1529059132836" class="icon" style="" viewBox="0 0 1024 1024" version="1.1" xmlns="http://www.w3.org/2000/svg" p-id="907" xmlns:xlink="http://www.w3.org/1999/xlink" width="200" height="200"><defs><style type="text/css"></style></defs><path d="M512 90.125C279.96875 90.125 90.125 279.96875 90.125 512s189.84375 421.875 421.875 421.875 421.875-189.84375 421.875-421.875-189.84375-421.875-421.875-421.875z m226.7578125 390.234375c0 10.546875-5.2734375 21.09375-10.546875 26.3671875-5.2734375 5.2734375-15.8203125 10.546875-21.09375 15.8203125-10.546875 5.2734375-15.8203125 0-21.09375-5.2734375-5.2734375-5.2734375-5.2734375-5.2734375-5.2734375-10.546875v-21.09375c0-15.8203125-5.2734375-31.640625-10.546875-47.4609375-5.2734375-15.8203125-15.8203125-31.640625-31.640625-47.4609375-10.546875-10.546875-15.8203125-15.8203125-26.3671875-21.09375-10.546875-10.546875-21.09375-10.546875-26.3671875-15.8203125h-31.640625c-10.546875 0-15.8203125 5.2734375-26.3671875 15.8203125-5.2734375 10.546875-10.546875 15.8203125-15.8203125 21.09375v26.3671875c0 10.546875 5.2734375 21.09375 15.8203125 36.9140625 5.2734375 15.8203125 15.8203125 31.640625 26.3671875 52.734375 10.546875 15.8203125 15.8203125 36.9140625 26.3671875 52.734375l15.8203125 47.4609375c0 15.8203125 0 31.640625-5.2734375 47.4609375-5.2734375 15.8203125-15.8203125 31.640625-31.640625 42.1875-15.8203125 15.8203125-31.640625 26.3671875-52.734375 31.640625-21.09375 5.2734375-36.9140625 5.2734375-58.0078125 5.2734375-21.09375-5.2734375-36.9140625-10.546875-58.0078125-15.8203125-21.09375-10.546875-36.9140625-21.09375-47.4609375-36.9140625-15.8203125-15.8203125-31.640625-36.9140625-42.1875-52.734375-10.546875-15.8203125-15.8203125-36.9140625-21.09375-52.734375 5.2734375-21.09375 0-36.9140625 5.2734375-47.4609375 0-10.546875 5.2734375-21.09375 10.546875-26.3671875 0-5.2734375 5.2734375-5.2734375 15.8203125-10.546875 10.546875-5.2734375 15.8203125 0 21.09375 5.2734375 5.2734375 5.2734375 5.2734375 10.546875 5.2734375 21.09375v31.640625c0 10.546875 5.2734375 26.3671875 10.546875 42.1875 5.2734375 15.8203125 15.8203125 31.640625 36.9140625 47.4609375 21.09375 15.8203125 47.4609375 31.640625 68.5546875 31.640625 21.09375 5.2734375 42.1875 0 58.0078125-15.8203125 5.2734375-5.2734375 10.546875-15.8203125 15.8203125-21.09375 5.2734375-5.2734375 5.2734375-15.8203125 5.2734375-26.3671875s-5.2734375-21.09375-10.546875-36.9140625c-10.546875-21.09375-15.8203125-36.9140625-31.640625-58.0078125-10.546875-21.09375-21.09375-42.1875-26.3671875-58.0078125-10.546875-15.8203125-15.8203125-31.640625-15.8203125-47.4609375 0-15.8203125 0-26.3671875 5.2734375-42.1875 5.2734375-10.546875 15.8203125-21.09375 26.3671875-36.9140625 15.8203125-15.8203125 31.640625-21.09375 47.4609375-26.3671875 15.8203125-5.2734375 31.640625-5.2734375 52.734375-5.2734375 15.8203125 0 36.9140625 5.2734375 52.734375 15.8203125 15.8203125 10.546875 31.640625 21.09375 47.4609375 36.9140625 15.8203125 15.8203125 26.3671875 31.640625 36.9140625 47.4609375 10.546875 15.8203125 15.8203125 31.640625 21.09375 47.4609375 0 10.546875 5.2734375 26.3671875 0 36.9140625z m0 0" p-id="908"></path></svg>